<mxfile host="65bd71144e">
    <diagram name="Page-1" id="wpN1kFagauyR__H6dpYm">
        <mxGraphModel dx="686" dy="611" grid="1" gridSize="10" guides="1" tooltips="1" connect="1" arrows="1" fold="1" page="1" pageScale="1" pageWidth="850" pageHeight="1100" math="0" shadow="0">
            <root>
                <mxCell id="0"/>
                <mxCell id="1" parent="0"/>
                <mxCell id="T06jGqI7ylYegNHbc4W2-1" value="System" style="shape=umlLifeline;perimeter=lifelinePerimeter;whiteSpace=wrap;container=1;dropTarget=0;collapsible=0;recursiveResize=0;outlineConnect=0;portConstraint=eastwest;newEdgeStyle={&quot;edgeStyle&quot;:&quot;elbowEdgeStyle&quot;,&quot;elbow&quot;:&quot;vertical&quot;,&quot;curved&quot;:0,&quot;rounded&quot;:0};size=65;fillColor=default;" parent="1" vertex="1">
                    <mxGeometry x="291" y="92" width="160" height="916" as="geometry"/>
                </mxCell>
                <mxCell id="T06jGqI7ylYegNHbc4W2-2" value="GameFactory" style="shape=umlLifeline;perimeter=lifelinePerimeter;whiteSpace=wrap;container=1;dropTarget=0;collapsible=0;recursiveResize=0;outlineConnect=0;portConstraint=eastwest;newEdgeStyle={&quot;edgeStyle&quot;:&quot;elbowEdgeStyle&quot;,&quot;elbow&quot;:&quot;vertical&quot;,&quot;curved&quot;:0,&quot;rounded&quot;:0};size=65;fillColor=default;" parent="1" vertex="1">
                    <mxGeometry x="531" y="92" width="160" height="916" as="geometry"/>
                </mxCell>
                <mxCell id="T06jGqI7ylYegNHbc4W2-3" value="GameAPI (VanguardApi)" style="shape=umlLifeline;perimeter=lifelinePerimeter;whiteSpace=wrap;container=1;dropTarget=0;collapsible=0;recursiveResize=0;outlineConnect=0;portConstraint=eastwest;newEdgeStyle={&quot;edgeStyle&quot;:&quot;elbowEdgeStyle&quot;,&quot;elbow&quot;:&quot;vertical&quot;,&quot;curved&quot;:0,&quot;rounded&quot;:0};size=65;fillColor=default;" parent="1" vertex="1">
                    <mxGeometry x="771" y="92" width="160" height="916" as="geometry"/>
                </mxCell>
                <mxCell id="T06jGqI7ylYegNHbc4W2-4" value="BaseApi" style="shape=umlLifeline;perimeter=lifelinePerimeter;whiteSpace=wrap;container=1;dropTarget=0;collapsible=0;recursiveResize=0;outlineConnect=0;portConstraint=eastwest;newEdgeStyle={&quot;edgeStyle&quot;:&quot;elbowEdgeStyle&quot;,&quot;elbow&quot;:&quot;vertical&quot;,&quot;curved&quot;:0,&quot;rounded&quot;:0};size=65;fillColor=default;" parent="1" vertex="1">
                    <mxGeometry x="1011" y="92" width="160" height="916" as="geometry"/>
                </mxCell>
                <mxCell id="T06jGqI7ylYegNHbc4W2-5" value="External API" style="shape=umlLifeline;perimeter=lifelinePerimeter;whiteSpace=wrap;container=1;dropTarget=0;collapsible=0;recursiveResize=0;outlineConnect=0;portConstraint=eastwest;newEdgeStyle={&quot;edgeStyle&quot;:&quot;elbowEdgeStyle&quot;,&quot;elbow&quot;:&quot;vertical&quot;,&quot;curved&quot;:0,&quot;rounded&quot;:0};size=65;fillColor=default;" parent="1" vertex="1">
                    <mxGeometry x="1251" y="92" width="160" height="916" as="geometry"/>
                </mxCell>
                <mxCell id="T06jGqI7ylYegNHbc4W2-6" value="createApi(&quot;vanguard&quot;)" style="verticalAlign=bottom;edgeStyle=elbowEdgeStyle;elbow=vertical;curved=0;rounded=0;endArrow=block;" parent="1" source="T06jGqI7ylYegNHbc4W2-1" target="T06jGqI7ylYegNHbc4W2-2" edge="1">
                    <mxGeometry relative="1" as="geometry">
                        <Array as="points">
                            <mxPoint x="477" y="201"/>
                        </Array>
                    </mxGeometry>
                </mxCell>
                <mxCell id="T06jGqI7ylYegNHbc4W2-7" value="Return VanguardApi instance" style="verticalAlign=bottom;edgeStyle=elbowEdgeStyle;elbow=vertical;curved=0;rounded=0;dashed=1;dashPattern=2 3;endArrow=open;endFill=0;" parent="1" source="T06jGqI7ylYegNHbc4W2-2" target="T06jGqI7ylYegNHbc4W2-1" edge="1">
                    <mxGeometry relative="1" as="geometry">
                        <Array as="points">
                            <mxPoint x="480" y="255"/>
                        </Array>
                    </mxGeometry>
                </mxCell>
                <mxCell id="T06jGqI7ylYegNHbc4W2-8" value="findCard(&quot;1&quot;)" style="verticalAlign=bottom;edgeStyle=elbowEdgeStyle;elbow=vertical;curved=0;rounded=0;endArrow=block;" parent="1" source="T06jGqI7ylYegNHbc4W2-1" target="T06jGqI7ylYegNHbc4W2-3" edge="1">
                    <mxGeometry relative="1" as="geometry">
                        <Array as="points">
                            <mxPoint x="588" y="309"/>
                        </Array>
                    </mxGeometry>
                </mxCell>
                <mxCell id="T06jGqI7ylYegNHbc4W2-9" value="getRequest(&quot;cards/1&quot;)" style="verticalAlign=bottom;edgeStyle=elbowEdgeStyle;elbow=vertical;curved=0;rounded=0;endArrow=block;" parent="1" source="T06jGqI7ylYegNHbc4W2-3" target="T06jGqI7ylYegNHbc4W2-4" edge="1">
                    <mxGeometry relative="1" as="geometry">
                        <Array as="points">
                            <mxPoint x="972" y="363"/>
                        </Array>
                    </mxGeometry>
                </mxCell>
                <mxCell id="T06jGqI7ylYegNHbc4W2-10" value="HTTP GET /cards/1" style="verticalAlign=bottom;edgeStyle=elbowEdgeStyle;elbow=vertical;curved=0;rounded=0;endArrow=block;" parent="1" source="T06jGqI7ylYegNHbc4W2-4" target="T06jGqI7ylYegNHbc4W2-5" edge="1">
                    <mxGeometry x="-0.0005" relative="1" as="geometry">
                        <Array as="points">
                            <mxPoint x="1232" y="417"/>
                        </Array>
                        <mxPoint as="offset"/>
                    </mxGeometry>
                </mxCell>
                <mxCell id="T06jGqI7ylYegNHbc4W2-11" value="Response (JSON)" style="verticalAlign=bottom;edgeStyle=elbowEdgeStyle;elbow=vertical;curved=0;rounded=0;dashed=1;dashPattern=2 3;endArrow=open;endFill=0;" parent="1" source="T06jGqI7ylYegNHbc4W2-5" target="T06jGqI7ylYegNHbc4W2-4" edge="1">
                    <mxGeometry relative="1" as="geometry">
                        <Array as="points">
                            <mxPoint x="1235" y="471"/>
                        </Array>
                    </mxGeometry>
                </mxCell>
                <mxCell id="T06jGqI7ylYegNHbc4W2-12" value="Decoded JSON data" style="verticalAlign=bottom;edgeStyle=elbowEdgeStyle;elbow=vertical;curved=0;rounded=0;dashed=1;dashPattern=2 3;endArrow=open;endFill=0;" parent="1" source="T06jGqI7ylYegNHbc4W2-4" target="T06jGqI7ylYegNHbc4W2-3" edge="1">
                    <mxGeometry relative="1" as="geometry">
                        <Array as="points">
                            <mxPoint x="975" y="525"/>
                        </Array>
                    </mxGeometry>
                </mxCell>
                <mxCell id="T06jGqI7ylYegNHbc4W2-13" value="Return CardModel" style="verticalAlign=bottom;edgeStyle=elbowEdgeStyle;elbow=vertical;curved=0;rounded=0;dashed=1;dashPattern=2 3;endArrow=open;endFill=0;" parent="1" source="T06jGqI7ylYegNHbc4W2-3" target="T06jGqI7ylYegNHbc4W2-1" edge="1">
                    <mxGeometry relative="1" as="geometry">
                        <Array as="points">
                            <mxPoint x="591" y="579"/>
                        </Array>
                    </mxGeometry>
                </mxCell>
                <mxCell id="T06jGqI7ylYegNHbc4W2-14" value="fetchCard(1)" style="verticalAlign=bottom;edgeStyle=elbowEdgeStyle;elbow=vertical;curved=0;rounded=0;endArrow=block;" parent="1" source="T06jGqI7ylYegNHbc4W2-1" target="T06jGqI7ylYegNHbc4W2-3" edge="1">
                    <mxGeometry relative="1" as="geometry">
                        <Array as="points">
                            <mxPoint x="588" y="633"/>
                        </Array>
                    </mxGeometry>
                </mxCell>
                <mxCell id="T06jGqI7ylYegNHbc4W2-15" value="getRequest(&quot;cards?page=1&quot;)" style="verticalAlign=bottom;edgeStyle=elbowEdgeStyle;elbow=vertical;curved=0;rounded=0;endArrow=block;" parent="1" source="T06jGqI7ylYegNHbc4W2-3" target="T06jGqI7ylYegNHbc4W2-4" edge="1">
                    <mxGeometry relative="1" as="geometry">
                        <Array as="points">
                            <mxPoint x="972" y="687"/>
                        </Array>
                    </mxGeometry>
                </mxCell>
                <mxCell id="T06jGqI7ylYegNHbc4W2-16" value="HTTP GET /cards?page=1" style="verticalAlign=bottom;edgeStyle=elbowEdgeStyle;elbow=vertical;curved=0;rounded=0;endArrow=block;" parent="1" source="T06jGqI7ylYegNHbc4W2-4" target="T06jGqI7ylYegNHbc4W2-5" edge="1">
                    <mxGeometry relative="1" as="geometry">
                        <Array as="points">
                            <mxPoint x="1232" y="741"/>
                        </Array>
                    </mxGeometry>
                </mxCell>
                <mxCell id="T06jGqI7ylYegNHbc4W2-17" value="Response (JSON)" style="verticalAlign=bottom;edgeStyle=elbowEdgeStyle;elbow=vertical;curved=0;rounded=0;dashed=1;dashPattern=2 3;endArrow=open;endFill=0;" parent="1" source="T06jGqI7ylYegNHbc4W2-5" target="T06jGqI7ylYegNHbc4W2-4" edge="1">
                    <mxGeometry relative="1" as="geometry">
                        <Array as="points">
                            <mxPoint x="1235" y="795"/>
                        </Array>
                    </mxGeometry>
                </mxCell>
                <mxCell id="T06jGqI7ylYegNHbc4W2-18" value="Decoded JSON data" style="verticalAlign=bottom;edgeStyle=elbowEdgeStyle;elbow=vertical;curved=0;rounded=0;dashed=1;dashPattern=2 3;endArrow=open;endFill=0;" parent="1" source="T06jGqI7ylYegNHbc4W2-4" target="T06jGqI7ylYegNHbc4W2-3" edge="1">
                    <mxGeometry relative="1" as="geometry">
                        <Array as="points">
                            <mxPoint x="975" y="849"/>
                        </Array>
                    </mxGeometry>
                </mxCell>
                <mxCell id="T06jGqI7ylYegNHbc4W2-19" value="Return List&lt;CardModel&gt;" style="verticalAlign=bottom;edgeStyle=elbowEdgeStyle;elbow=vertical;curved=0;rounded=0;dashed=1;dashPattern=2 3;endArrow=open;endFill=0;" parent="1" source="T06jGqI7ylYegNHbc4W2-3" target="T06jGqI7ylYegNHbc4W2-1" edge="1">
                    <mxGeometry relative="1" as="geometry">
                        <Array as="points">
                            <mxPoint x="591" y="903"/>
                        </Array>
                    </mxGeometry>
                </mxCell>
            </root>
        </mxGraphModel>
    </diagram>
</mxfile>